<?xml version="1.0" encoding="utf-8"?>
<!-- Generator: Adobe Illustrator 16.0.0, SVG Export Plug-In . SVG Version: 6.00 Build 0)  -->
<!DOCTYPE svg PUBLIC "-//W3C//DTD SVG 1.1//EN" "http://www.w3.org/Graphics/SVG/1.1/DTD/svg11.dtd">
<svg version="1.1" id="Layer_1" xmlns="http://www.w3.org/2000/svg" xmlns:xlink="http://www.w3.org/1999/xlink" x="0px" y="0px"
	 width="87.401px" height="111.316px" viewBox="0 0 87.401 111.316" enable-background="new 0 0 87.401 111.316"
	 xml:space="preserve">
<g>
	<path fill="#fff" d="M87.252,50.85c0.148,0.152,0.187,0.339,0.113,0.565c-0.078,0.226-0.113,0.417-0.113,0.565
		c-0.604,0.756-0.756,1.66-0.452,2.712c0.148,0.452,0.074,0.981-0.226,1.582c-0.152,0.755-0.265,1.546-0.339,2.373
		c-0.078,0.83-0.265,1.621-0.565,2.373c-0.304,1.508-0.078,2.412,0.678,2.712c-0.304,1.208-0.643,2.26-1.017,3.164
		c-0.377,0.904-0.717,1.886-1.017,2.938c-0.304,0.452,0,0.678,0.904,0.678c-0.304,0.452-0.604,0.678-0.904,0.678l-0.452,0.452
		c0.3,0.604,0.3,1.056,0,1.356c-0.304,0.304-0.604,0.604-0.904,0.904c-0.303,0.304-0.529,0.604-0.678,0.904
		c-0.152,0.304-0.378,0.604-0.678,0.904c0,0.452-0.152,0.678-0.452,0.678c-0.756,0.304-1.243,0.791-1.469,1.469
		c-0.226,0.678-0.417,1.32-0.565,1.921c-0.304,0.904-0.678,1.695-1.13,2.373c-0.452,0.678-0.982,1.32-1.582,1.921
		c-0.304,0.304-0.53,0.604-0.678,0.904c-0.152,0.304-0.304,0.678-0.452,1.13c-0.452,0.755-0.982,1.582-1.582,2.486
		c-0.452,0.452-0.304,0.755,0.452,0.904c-0.452,0.304-0.981,0.452-1.582,0.452c-0.604,0-1.13,0.226-1.582,0.678
		c0,0.152-0.078,0.152-0.226,0h-0.226c-0.152-0.3-0.226-0.487-0.226-0.565c0-0.074-0.078-0.261-0.226-0.565
		c-0.152,0.304-0.226,0.643-0.226,1.017c0,0.378-0.078,0.717-0.226,1.017c0,1.056-0.452,1.66-1.356,1.808
		c-0.904,0-1.808,0.452-2.712,1.356c-0.152,0.152-0.265,0.226-0.339,0.226c-0.078,0-0.191,0.078-0.339,0.226
		c-1.208,0.756-2.112,1.434-2.712,2.034c-0.604,0.604-1.282,1.734-2.034,3.39c-0.152,0.152-0.53,0.226-1.13,0.226
		c-0.452,0.152-0.756,0.377-0.904,0.678c-0.152,0.304-0.378,0.53-0.678,0.678c-0.304,0.304-0.53,0.304-0.678,0
		c-0.304-0.148-0.304-0.375,0-0.678c0.601-0.452,1.43-1.204,2.486-2.26v0.226v-0.226c0.148-0.148,0.262-0.226,0.339-0.226
		c0.074,0,0.187-0.074,0.339-0.226v-0.678H59.68c-0.304,0-0.452,0.152-0.452,0.452v0.678c-0.755-0.3-1.434-0.3-2.034,0
		c-0.604,0.304-1.282,0.604-2.034,0.904c-0.304,0.304-0.452,0.604-0.452,0.904c-0.152,0.452-0.226,1.056-0.226,1.808
		c-1.808,0.452-3.542,1.282-5.198,2.486c0,0.152,0.035,0.304,0.113,0.452c0.074,0.152,0.113,0.304,0.113,0.452
		c-0.152,0.604-0.53,0.904-1.13,0.904c-0.604-0.3-1.13-0.452-1.582-0.452c-0.452,0.304-0.982,0.755-1.582,1.356
		c-0.304,0.152-0.904,0.378-1.808,0.678c-0.904-0.3-1.66-0.526-2.26-0.678c-0.604,0.755-1.321,1.243-2.147,1.469
		c-0.83,0.226-1.621,0.417-2.373,0.565c-0.152,0.152-0.304,0.226-0.452,0.226H35.95c-1.208,0.756-2.373,1.095-3.503,1.017
		c-1.13-0.074-2.299-0.187-3.503-0.339c-1.808-0.148-3.542-0.752-5.198-1.808c-0.755-0.452-1.434-0.826-2.034-1.13
		c-0.604-0.3-1.282-0.678-2.034-1.13c-0.604-0.3-1.095-0.678-1.469-1.13c-0.378-0.452-0.869-0.826-1.469-1.13
		c-1.356-1.052-2.525-2.182-3.503-3.39c-0.982-1.204-1.921-2.486-2.825-3.842c-0.755-1.052-1.356-2.182-1.808-3.39
		C8.3,93.564,8.039,93.112,7.813,92.66c-0.226-0.452-0.491-0.978-0.791-1.582c-1.056-1.204-1.886-2.486-2.486-3.842
		c-0.304-0.3-0.53-0.565-0.678-0.791c-0.152-0.226-0.378-0.487-0.678-0.791c-0.756-0.601-1.208-1.278-1.356-2.034
		c-1.66-5.572-2.186-10.922-1.582-16.046c0.3-3.164,0.865-6.215,1.695-9.153c0.827-2.938,1.996-5.837,3.503-8.701
		c0.6-1.204,1.204-2.408,1.808-3.616c0.601-1.204,1.204-2.408,1.808-3.616c0.904-2.26,2.034-4.294,3.39-6.102
		c1.204-1.504,2.26-3.012,3.164-4.52c0.904-1.504,2.034-2.938,3.39-4.294l1.356-1.356c3.164-4.368,6.402-8.21,9.718-11.526
		c1.808-1.957,4.068-4.068,6.78-6.328c1.356-1.052,2.712-1.882,4.068-2.486c0.752-0.3,1.469-0.713,2.147-1.243
		c0.678-0.526,1.391-0.939,2.147-1.243c0.904-0.6,1.769-1.13,2.599-1.582c0.826-0.452,1.695-0.978,2.599-1.582
		c0.148,0,0.3-0.035,0.452-0.113C51.014,0.039,51.166,0,51.318,0c1.356,0.756,2.486,1.056,3.39,0.904
		c0.752,0,1.356,0.152,1.808,0.452C56.968,1.66,57.42,1.96,57.872,2.26c0.3,0.452,0.639,0.869,1.017,1.243
		c0.375,0.377,0.713,0.791,1.017,1.243v0.452c-0.604,0.904-0.869,1.469-0.791,1.695c0.074,0.226,0.487,0.717,1.243,1.469
		c0.3,0.152,0.565,0.304,0.791,0.452c0.226,0.151,0.487,0.226,0.791,0.226c0.904,0.304,1.808,0.604,2.712,0.904
		c0.904,0.304,1.808,0.755,2.712,1.356c0.6,0.304,1.204,0.452,1.808,0.452c1.656,0,3.086,0.604,4.294,1.808
		c1.656,1.356,3.012,3.016,4.068,4.972c0.3,0.604,0.678,1.13,1.13,1.582c0.752,1.208,1.504,2.337,2.26,3.39
		c0.752,1.056,1.43,2.186,2.034,3.39c0.601,1.056,1.053,2.338,1.356,3.842c0.148,0.152,0.226,0.304,0.226,0.452
		c0,0.152,0.074,0.304,0.226,0.452c0.601,0.756,0.827,1.66,0.678,2.712c0,0.904,0.148,1.582,0.452,2.034
		c0.148,0.152,0.226,0.378,0.226,0.678c-0.152,1.056-0.113,2.111,0.113,3.164c0.226,1.056,0.413,2.112,0.565,3.164v4.068
		c0,0.604,0,1.168,0,1.695C86.8,49.685,86.948,50.25,87.252,50.85z M66.686,51.076c0.452-0.452,0.678-0.939,0.678-1.469
		c0-0.526,0-1.091,0-1.695c0-1.956,0.035-3.916,0.113-5.876c0.074-1.956,0.036-3.916-0.113-5.876c0-1.356-0.039-2.221-0.113-2.599
		c-0.078-0.374-0.565-1.091-1.469-2.147c-0.304-0.6-0.717-1.13-1.243-1.582c-0.529-0.452-1.095-0.904-1.695-1.356
		c-0.756-0.3-1.469-0.6-2.147-0.904c-0.678-0.3-1.395-0.601-2.147-0.904c-0.304-0.148-0.643-0.3-1.017-0.452
		c-0.378-0.148-0.791-0.074-1.243,0.226c-0.755,0.152-1.508,0-2.26-0.452c-1.356-0.904-2.564-0.678-3.616,0.678
		c-0.604,0.756-1.168,1.434-1.695,2.034c-0.53,0.604-1.095,1.208-1.695,1.808c-0.452,0.604-0.869,1.169-1.243,1.695
		c-0.378,0.53-0.717,1.169-1.017,1.921c-1.508,0.452-2.486,1.13-2.938,2.034c0,0.452-0.304,0.83-0.904,1.13
		c-1.056,0.904-1.808,1.808-2.26,2.712c-0.304,0.755-0.755,1.13-1.356,1.13c-0.452,0-0.981,0.304-1.582,0.904
		c-0.604,0.756-1.169,1.582-1.695,2.486c-0.53,0.904-1.095,1.808-1.695,2.712c-0.152,0.304-0.226,0.904-0.226,1.808
		c0,0.152-0.078,0.304-0.226,0.452c-0.452,0.756-0.904,1.434-1.356,2.034c-0.452,0.604-0.982,1.208-1.582,1.808
		c-0.904,0.904-1.582,1.885-2.034,2.938c-0.304,1.208-0.791,2.412-1.469,3.616c-0.678,1.208-1.169,2.412-1.469,3.616
		c-0.152,0.452-0.339,0.869-0.565,1.243c-0.226,0.378-0.417,0.717-0.565,1.017c0,0.452-0.113,0.83-0.339,1.13
		C22.277,67.2,22.012,67.5,21.712,67.8c0.452,1.356,0.3,2.638-0.452,3.842c-0.452,0.756-0.678,1.508-0.678,2.26
		c-0.304,1.208-0.452,2.111-0.452,2.712c-0.756,5.728,0.978,10.396,5.198,14.012c1.356,1.356,2.938,1.808,4.746,1.356
		c1.504-0.452,3.238-1.053,5.198-1.808c1.808-0.601,3.538-1.317,5.198-2.147c1.656-0.827,3.313-1.618,4.972-2.373
		c1.808-0.904,3.764-1.957,5.876-3.164c0.452-0.3,0.826-0.678,1.13-1.13c0.904-1.204,1.769-2.373,2.599-3.503
		c0.826-1.13,1.617-2.295,2.373-3.503c0.148-0.3,0.339-0.639,0.565-1.017c0.226-0.375,0.487-0.713,0.791-1.017
		c0.6-0.752,1.13-1.543,1.582-2.373c0.452-0.826,0.826-1.769,1.13-2.825c0.148-0.452,0.526-1.13,1.13-2.034
		c0.3-0.601,0.565-1.166,0.791-1.695c0.226-0.526,0.487-1.165,0.791-1.921c0.601-1.356,1.017-2.747,1.243-4.181
		c0.226-1.43,0.487-2.899,0.791-4.407c0.148-0.3,0.226-0.601,0.226-0.904C66.46,51.68,66.534,51.38,66.686,51.076z M34.594,106.22
		c-0.452-0.452-0.83-0.752-1.13-0.904c-1.208-0.752-2.451-1.053-3.729-0.904c-1.282,0.152-2.525,0.378-3.729,0.678
		c-0.452,0-0.678,0.226-0.678,0.678c-0.152,0.452,0.074,0.83,0.678,1.13c1.052,0.303,2.108,0.565,3.164,0.791
		c1.052,0.226,2.182,0.113,3.39-0.339c0.3-0.148,0.526-0.226,0.678-0.226c0.148,0,0.374-0.074,0.678-0.226L34.594,106.22z
		 M56.968,21.922c-0.756-0.148-1.582,0.226-2.486,1.13c0.452,0.452,0.826,0.756,1.13,0.904c1.204,0.304,2.373,0.756,3.503,1.356
		c1.13,0.604,2.295,1.282,3.503,2.034c0.601,0.756,1.504,1.208,2.712,1.356c-0.452-1.204-0.943-2.334-1.469-3.39
		c-0.53-1.052-1.169-1.956-1.921-2.712c-1.056-0.752-2.034-0.978-2.938-0.678C58.246,22.226,57.568,22.226,56.968,21.922z
		 M72.336,86.332c-0.604,0-0.943,0.152-1.017,0.452c-0.078,0.304-0.191,0.604-0.339,0.904c0,0.452,0.074,0.756,0.226,0.904
		c0.148,0.152,0.3,0.226,0.452,0.226c0.148,0,0.375,0.078,0.678,0.226V86.332z"/>
</g>
</svg>
