<?xml version="1.0" encoding="utf-8"?>
<!-- Generator: Adobe Illustrator 16.0.0, SVG Export Plug-In . SVG Version: 6.00 Build 0)  -->
<!DOCTYPE svg PUBLIC "-//W3C//DTD SVG 1.1//EN" "http://www.w3.org/Graphics/SVG/1.1/DTD/svg11.dtd">
<svg version="1.1" id="Layer_1" xmlns="http://www.w3.org/2000/svg" xmlns:xlink="http://www.w3.org/1999/xlink" x="0px" y="0px"
	 width="71.462px" height="145.544px" viewBox="0 0 71.462 145.544" enable-background="new 0 0 71.462 145.544"
	 xml:space="preserve">
<g>
	<path fill="#fff" d="M70.74,21.47c0.6,0.604,0.826,1.282,0.678,2.034c-0.304,0.756-0.565,1.469-0.791,2.147
		c-0.226,0.678-0.491,1.395-0.791,2.147c-0.152,0-0.226,0.078-0.226,0.226c0,0.152-0.078,0.226-0.226,0.226
		c-0.604,0.304-0.943,0.643-1.017,1.017c-0.078,0.377-0.265,0.791-0.565,1.243c-0.452,1.056-0.869,2.034-1.243,2.938
		c-0.378,0.904-0.943,1.734-1.695,2.486c-0.904,1.208-1.508,2.111-1.808,2.712c-0.304,0.452-0.565,0.943-0.791,1.469
		c-0.226,0.53-0.565,0.943-1.017,1.243c-0.304,0.304-0.452,0.604-0.452,0.904c-0.304,0.604-0.643,1.208-1.017,1.808
		c-0.378,0.604-0.717,1.208-1.017,1.808c-0.452,0.904-0.869,1.734-1.243,2.486c-0.378,0.756-0.943,1.508-1.695,2.26
		c-0.152,0.152-0.226,0.529-0.226,1.13c0.148,0.756,0,1.508-0.452,2.26c-0.152,0.452-0.529,0.53-1.13,0.226l0.678-2.034
		c0.3-0.452,0-0.827-0.904-1.13c-0.152,0.152-0.378,0.53-0.678,1.13c-1.508,3.467-3.164,6.405-4.972,8.814
		c-0.904,1.356-0.981,2.486-0.226,3.39c0.148,0.152,0.226,0.604,0.226,1.356c-0.304,1.96-0.152,3.616,0.452,4.972
		c0.3,0.756,0.6,1.356,0.904,1.808c0.3,0.452,0.904,0.678,1.808,0.678c-0.604,1.208-0.53,2.412,0.226,3.616
		c0.3,0.904,0.526,1.508,0.678,1.808c0.148,0.755,0.262,1.469,0.339,2.147c0.074,0.678,0.261,1.395,0.565,2.147
		c0.148,0.304,0.187,0.53,0.113,0.678c-0.078,0.152-0.113,0.304-0.113,0.452c0.148,0.452,0.226,0.904,0.226,1.356
		c0,0.452,0.074,0.904,0.226,1.356c0.3,0.152,0.678,0.226,1.13,0.226c0.752,0.452,1.204,0.982,1.356,1.582
		c0.3,1.808,0.826,3.468,1.582,4.972c0.452,0.604,0.526,1.66,0.226,3.164c-0.152,1.056-0.982,1.734-2.486,2.034
		c0.148,0.304,0.226,0.565,0.226,0.791s0.074,0.417,0.226,0.565c0.6,0.452,1.052,1.434,1.356,2.938c0.3-0.148,0.6-0.374,0.904-0.678
		c0.452-0.452,0.827-0.978,1.13-1.582c0.752,0,0.904,0.226,0.452,0.678c-0.152,0.304-0.304,0.604-0.452,0.904
		c-0.152,0.304-0.378,0.604-0.678,0.904c-0.152,0.152-0.265,0.226-0.339,0.226c-0.078,0-0.191,0.078-0.339,0.226
		c-0.756,0.304-1.056,0.756-0.904,1.356c0.148,0.304,0.226,0.604,0.226,0.904c0,0.304,0.074,0.604,0.226,0.904
		c0.6,1.056,0.678,2.26,0.226,3.616c-0.152,0.304-0.226,0.565-0.226,0.791s-0.078,0.491-0.226,0.791c0.6,0,0.978,0.078,1.13,0.226
		c0.452,0,0.452,0.226,0,0.678c0,0.152-0.152,0.53-0.452,1.13c0,0.756,0.3,0.981,0.904,0.678c0.452,0,0.826-0.148,1.13-0.452
		c0.3-0.601,0.339-1.13,0.113-1.582c-0.226-0.452-0.191-0.978,0.113-1.582c0.3,0.152,0.678,0.452,1.13,0.904
		c0.3-0.3,0.487-0.526,0.565-0.678c0.074-0.148,0.262-0.375,0.565-0.678c0.452,0.904,0.3,1.582-0.452,2.034
		c-0.904,0.904-1.208,2.186-0.904,3.842c0.148,0.756,0.188,1.395,0.113,1.921c-0.078,0.53-0.191,1.095-0.339,1.695
		c0,0.304-0.152,0.604-0.452,0.904c-0.452,0.304-0.678,0.678-0.678,1.13c0,0.604-0.113,1.169-0.339,1.695
		c-0.226,0.53-0.19,1.017,0.113,1.469l0.452,0.452c0.601-0.6,1.052-0.978,1.356-1.13c0.452,0.304,0.526,0.83,0.226,1.582
		c-0.152,0.304-0.304,0.53-0.452,0.678c-0.152,0.152-0.304,0.378-0.452,0.678c-0.304,0.304-0.604,0.755-0.904,1.356
		c-0.904-0.148-1.546,0.113-1.921,0.791c-0.378,0.678-0.791,1.317-1.243,1.921c0-0.152-0.151-0.378-0.452-0.678
		c-0.152-0.904-0.304-1.844-0.452-2.825c-0.152-0.978-0.304-1.921-0.452-2.825c-0.304-0.3-0.529-0.678-0.678-1.13
		c0,0.452-0.039,0.756-0.113,0.904c-0.078,0.152-0.039,0.378,0.113,0.678c0,1.208,0.074,2.112,0.226,2.712
		c0,0.452-0.078,0.756-0.226,0.904c-0.756,0.604-1.056,1.243-0.904,1.921c0.148,0.678,0.074,1.317-0.226,1.921
		c0,0.752,0.074,1.278,0.226,1.582c0.148,0.452,0.526,1.278,1.13,2.486c-0.304,0.3-0.491,0.639-0.565,1.017
		c-0.078,0.375-0.265,0.713-0.565,1.017c-0.152-0.756-0.19-1.434-0.113-2.034c0.074-0.604-0.19-1.13-0.791-1.582
		c-0.452,0.3-1.282,0.752-2.486,1.356l-1.356-3.39c-0.452,0.452-0.678,0.752-0.678,0.904c0,0.148,0.035,0.3,0.113,0.452
		c0.074,0.148,0.113,0.374,0.113,0.678c-0.304,0.452-0.339,0.904-0.113,1.356c0.226,0.452,0.413,0.904,0.565,1.356
		c-0.604,1.204-0.756,2.108-0.452,2.712c0.148,0.6,0.074,1.356-0.226,2.26l-0.678,2.034c-0.304-0.304-0.53-0.491-0.678-0.565
		c-0.152-0.078-0.304-0.265-0.452-0.565c-0.904-1.508-1.772-3.016-2.599-4.52c-0.83-1.508-1.547-3.09-2.147-4.746
		c-0.304-0.756-0.604-1.547-0.904-2.373c-0.304-0.83-0.678-1.621-1.13-2.373c-0.604-1.204-1.095-2.447-1.469-3.729
		c-0.377-1.278-0.717-2.521-1.017-3.729c-0.604-1.957-1.169-3.916-1.695-5.876c-0.53-1.957-1.095-3.99-1.695-6.102
		c-0.452-1.504-0.83-3.012-1.13-4.52c-0.304-1.504-0.678-3.012-1.13-4.52c-0.304-1.504-0.604-2.938-0.904-4.294
		c-0.304-1.356-0.678-2.786-1.13-4.294c0-0.3-0.078-0.526-0.226-0.678c-0.152-0.148-0.304-0.374-0.452-0.678v-1.808
		c-0.904,0.304-1.395,0.869-1.469,1.695c-0.078,0.83-0.565,1.395-1.469,1.695c0.3,0.304,0.452,0.491,0.452,0.565
		c0,0.078,0.148,0.19,0.452,0.339c0.148-0.3,0.3-0.526,0.452-0.678c0.148-0.148,0.375-0.375,0.678-0.678
		c0,0.756-0.152,1.356-0.452,1.808c-0.304,0.452-0.53,0.981-0.678,1.582h-1.13c0,0.452-0.078,0.83-0.226,1.13
		c-0.152,0.152-0.303,0.226-0.452,0.226c-0.152,0-0.378,0.078-0.678,0.226c-0.304,0.304-0.491,0.604-0.565,0.904
		c-0.078,0.304-0.265,0.604-0.565,0.904c-0.604,0.604-1.13,0.981-1.582,1.13v0.452v-0.452c0.6-0.3,0.865-0.678,0.791-1.13
		c-0.078-0.452-0.191-0.904-0.339-1.356c0.3-0.3,0.565-0.565,0.791-0.791c0.226-0.226,0.487-0.487,0.791-0.791
		c0-0.904,0.074-1.504,0.226-1.808c0-0.3,0.074-0.565,0.226-0.791c0.148-0.226,0.3-0.487,0.452-0.791
		c-0.452-0.3-0.981-0.413-1.582-0.339c-0.604,0.078-1.13-0.188-1.582-0.791c0.148-0.3,0.375-0.414,0.678-0.339
		c0.3,0.078,0.526-0.035,0.678-0.339c0.148-0.3,0.3-0.526,0.452-0.678c0.148-0.148,0.3-0.374,0.452-0.678
		c0.3-0.904,0.452-1.504,0.452-1.808c-0.152,0-0.304-0.074-0.452-0.226c0-0.452,0.148-0.678,0.452-0.678
		c0-0.601,0.113-1.13,0.339-1.582c0.226-0.452,0.487-0.904,0.791-1.356c0.148-0.3,0.3-0.601,0.452-0.904
		c0.148-0.3,0.375-0.6,0.678-0.904c0.3-0.3,0.226-0.601-0.226-0.904c-0.452-0.148-0.83-0.074-1.13,0.226
		c-0.604,1.208-1.056,2.034-1.356,2.486c0,0.452-0.078,0.755-0.226,0.904c-0.756,0.604-1.282,1.282-1.582,2.034
		c-0.304,0.755-0.678,1.508-1.13,2.26l-4.746,8.814c-0.152,0.304-0.265,0.678-0.339,1.13c-0.078,0.452-0.265,0.83-0.565,1.13
		c-0.304,0.452-0.377,0.83-0.226,1.13c0.148,0.304,0.3,0.678,0.452,1.13c-0.304,0.304-0.491,0.643-0.565,1.017
		c-0.078,0.378-0.491,0.643-1.243,0.791c-0.304,0-0.452,0.226-0.452,0.678c-0.304,0.604-0.565,1.168-0.791,1.695
		c-0.226,0.53-0.491,1.095-0.791,1.695c-0.152,0.152-0.226,0.304-0.226,0.452c0,0.152-0.078,0.304-0.226,0.452
		c-1.056,1.208-1.734,2.486-2.034,3.842c-0.304,1.356-0.756,2.712-1.356,4.068c-1.056,1.96-1.66,3.92-1.808,5.876
		C5.5,124.151,5.313,124.3,5.087,124.3c-0.226,0-0.491,0.078-0.791,0.226c0,0.304-0.039,0.565-0.113,0.791
		c-0.078,0.226-0.113,0.491-0.113,0.791c-0.304,0.152-0.491,0.265-0.565,0.339c-0.078,0.078-0.265,0.191-0.565,0.339
		c-0.152,0.756-0.265,1.508-0.339,2.26c-0.078,0.756-0.19,1.504-0.339,2.26c0,1.356-0.604,2.26-1.808,2.712
		c0-0.304-0.078-0.491-0.226-0.565c-0.152-0.078-0.226-0.265-0.226-0.565v-2.486c0.148-0.3,0.226-0.826,0.226-1.582
		c-0.304-1.656-0.304-3.238,0-4.746c0.3-1.504,0.601-3.086,0.904-4.746c0.148-0.904,0.339-1.808,0.565-2.712
		c0.226-0.904,0.487-1.808,0.791-2.712l0.678-2.712c0.3-0.904,0.526-1.43,0.678-1.582c0.452-0.3,0.6-0.6,0.452-0.904
		c-0.152-0.452-0.078-1.13,0.226-2.034c0.752-2.26,1.504-4.142,2.26-5.65c0.148-0.601,0.339-1.166,0.565-1.695
		c0.226-0.526,0.487-1.091,0.791-1.695c1.052-2.408,2.221-4.746,3.503-7.006c1.278-2.26,2.521-4.594,3.729-7.006
		c0.752-1.656,1.543-3.238,2.373-4.746c0.826-1.504,1.695-3.086,2.599-4.746c0.3-0.601,0.565-1.166,0.791-1.695
		c0.226-0.526,0.487-1.091,0.791-1.695c0.452-1.052,0.526-1.956,0.226-2.712V67.8c-0.904-2.26-1.66-4.555-2.26-6.893
		c-0.604-2.334-1.282-4.707-2.034-7.119c-0.303-0.452-0.565-0.865-0.791-1.243c-0.226-0.375-0.417-0.865-0.565-1.469
		c-0.452-1.504-0.869-3.012-1.243-4.52c-0.378-1.504-0.943-3.012-1.695-4.52c-0.304-0.452-0.604-1.278-0.904-2.486
		c0-0.3-0.078-0.526-0.226-0.678c-0.756-0.904-1.208-1.882-1.356-2.938c-0.152-1.053-0.378-2.183-0.678-3.39
		c-0.303-1.052-0.604-2.108-0.904-3.164C9.19,28.328,8.89,27.198,8.59,25.99c-0.304-1.204-0.53-2.408-0.678-3.616
		c-0.152-1.204-0.378-2.409-0.678-3.616c-0.304-0.752-0.491-1.582-0.565-2.486c-0.078-0.904-0.417-1.73-1.017-2.486
		c-0.152-0.148-0.226-0.452-0.226-0.904c0.148-0.904,0-1.808-0.452-2.712C4.522,9.118,4.748,8.062,5.652,7.006
		c0.3-0.3,0.713-0.565,1.243-0.791C7.421,5.989,7.986,6.028,8.59,6.328c0.452,0.304,0.978,0.491,1.582,0.565
		c0.6,0.078,1.13,0.265,1.582,0.565c0.3,0.304,0.639,0.378,1.017,0.226c0.375-0.148,0.791-0.148,1.243,0
		c0.148,0.304,0.375,0.904,0.678,1.808c0.3,0.152,0.6,0.304,0.904,0.452c0.3,0.152,0.6,0.304,0.904,0.452
		c0.3,0.152,0.565,0.304,0.791,0.452c0.226,0.152,0.487,0.226,0.791,0.226c0.752,0.152,1.543,0.265,2.373,0.339
		c0.827,0.078,1.617,0.265,2.373,0.565c0-0.148,0.035-0.3,0.113-0.452c0.074-0.148,0.113-0.3,0.113-0.452
		c-0.304-1.204-0.53-2.295-0.678-3.277c-0.152-0.978-0.377-2.069-0.678-3.277c-0.152-0.752-0.339-1.469-0.565-2.147
		c-0.226-0.678-0.565-1.243-1.017-1.695c0-0.3,0.074-0.526,0.226-0.678l0.452,0.226c0.148,0.152,0.375,0.529,0.678,1.13
		c0.3,0.452,0.526,0.904,0.678,1.356c0.148,0.452,0.452,0.83,0.904,1.13c0.3,0,0.452,0.226,0.452,0.678
		c0.3,1.208,0.452,2.111,0.452,2.712c0.148,0.904,0.3,1.808,0.452,2.712c0.148,0.904,0.375,1.808,0.678,2.712
		c0.148,0.304,0.3,0.604,0.452,0.904c0.148,0.304,0.375,0.604,0.678,0.904c0.148,0.452,0.6,0.904,1.356,1.356
		c-0.152,0.152-0.53,0.678-1.13,1.582c0.3,0.756,0.413,1.547,0.339,2.373c-0.078,0.83,0.487,1.469,1.695,1.921
		c-0.755,1.056-0.678,1.96,0.226,2.712c0.3-0.3,0.904-0.6,1.808-0.904c0.3,0.604,0.526,0.981,0.678,1.13
		c0.3,0.904,0.6,1.582,0.904,2.034c0.148,0.152,0.226,0.452,0.226,0.904c-0.452,0.604-0.378,1.208,0.226,1.808
		c-0.152,0,0,0.226,0.452,0.678c0.3,1.208,0.639,2.412,1.017,3.616c0.375,1.208,0.865,2.412,1.469,3.616
		c0.3,0.604,0.374,0.981,0.226,1.13c0,0.452,0.226,0.904,0.678,1.356c0.452,0.604,0.978,0.604,1.582,0
		c0.3-0.452,0.6-0.904,0.904-1.356c0.3-0.452,0.601-0.904,0.904-1.356c0.752-1.204,1.469-2.447,2.147-3.729
		c0.678-1.278,1.391-2.521,2.147-3.729c0.452-0.752,0.904-1.504,1.356-2.26c0.452-0.752,0.904-1.504,1.356-2.26
		c0.6-1.204,1.278-2.334,2.034-3.39c0.752-1.052,1.504-2.182,2.26-3.39c0.601-0.752,1.204-1.43,1.808-2.034
		c0.6-0.601,1.278-1.278,2.034-2.034c0.452-0.452,0.904-0.6,1.356-0.452c0.904,0.152,1.769,0.339,2.599,0.565
		c0.827,0.226,1.618,0.643,2.373,1.243c0.452,0.452,0.939,0.83,1.469,1.13c0.526,0.304,0.939,0.83,1.243,1.582
		c0.3,0.604,0.904,0.904,1.808,0.904C67.576,19.362,69.232,20.114,70.74,21.47z M10.624,102.378c0.452-0.601,0.713-0.978,0.791-1.13
		c0.074-0.148,0.113-0.375,0.113-0.678c-0.152,0-0.265-0.035-0.339-0.113c-0.078-0.074-0.19-0.113-0.339-0.113
		C10.698,100.948,10.624,101.625,10.624,102.378z M11.076,119.78l-0.226-0.226h0.226V119.78z M11.754,99.214
		c0.148,0,0.3-0.074,0.452-0.226c0-0.148-0.078-0.3-0.226-0.452l-0.452,0.226c0,0.152,0.035,0.226,0.113,0.226
		C11.715,98.988,11.754,99.065,11.754,99.214z M16.5,105.09v0.226c-0.152,0.304-0.226,0.53-0.226,0.678
		c0,0.152-0.078,0.304-0.226,0.452c-0.904,1.208-1.434,2.26-1.582,3.164c-0.304,0.304-0.53,0.452-0.678,0.452
		c-0.304-1.808,0.148-3.012,1.356-3.616c0.3-0.3,0.526-0.487,0.678-0.565c0.148-0.074,0.374-0.261,0.678-0.565V105.09
		c-0.152-0.752-0.039-1.356,0.339-1.808c0.374-0.452,0.791-0.978,1.243-1.582v0.678C17.479,103.585,16.952,104.49,16.5,105.09z
		 M18.534,86.106c0-0.3,0.074-0.565,0.226-0.791c0.148-0.226,0.074-0.487-0.226-0.791c-1.208,1.96-2.186,3.768-2.938,5.424
		c0.452,0,0.752-0.074,0.904-0.226c0.601-0.3,0.979-0.826,1.13-1.582c0.148-0.3,0.3-0.639,0.452-1.017
		C18.23,86.749,18.382,86.41,18.534,86.106z M20.116,83.62c0.148,0,0.226-0.074,0.226-0.226l-0.226-0.226v0.226V83.62z
		 M20.342,102.378c0-0.148,0.074-0.226,0.226-0.226v0.226H20.342z M21.698,94.242c0.452,0.152,0.526,0.53,0.226,1.13
		c-0.152,0.304-0.304,0.529-0.452,0.678c-0.152,0.152-0.378,0.378-0.678,0.678C20.794,95.676,21.094,94.846,21.698,94.242z
		 M23.732,77.066v-0.678H23.28c-0.304,0.304-0.452,0.53-0.452,0.678c0,0.152-0.078,0.304-0.226,0.452h-0.226v0.226
		c-0.304,0.304-0.565,0.678-0.791,1.13c-0.226,0.452-0.265,0.981-0.113,1.582c1.356-0.752,1.656-1.656,0.904-2.712
		c0-0.148,0.074-0.226,0.226-0.226h0.678C23.581,77.518,23.732,77.37,23.732,77.066z M23.958,88.592
		c0.452-0.148,0.452-0.452,0-0.904V88.592z M30.06,33.674c-0.304-0.452-0.491-0.904-0.565-1.356c-0.078-0.452-0.19-0.826-0.339-1.13
		l-0.678-0.678c-0.304,0.304-0.452,0.604-0.452,0.904c0,0.604,0.074,1.13,0.226,1.582c0.601,0.151,0.865,0.452,0.791,0.904
		c-0.078,0.452,0.036,0.981,0.339,1.582c0.148-0.452,0.374-0.826,0.678-1.13V33.674z M32.094,31.64h-0.226v0.226h0.226V31.64z
		 M33.676,45.2c0.148-0.6,0.226-1.052,0.226-1.356c-0.304-0.904-0.604-1.43-0.904-1.582c-0.152,0-0.226,0.078-0.226,0.226
		c-0.304,0.304-0.304,0.756,0,1.356c0.148,0.304,0.262,0.53,0.339,0.678C33.186,44.674,33.373,44.9,33.676,45.2z M40.682,118.424
		c0.752-1.808,0.978-3.464,0.678-4.972c-0.152-0.3-0.304-0.639-0.452-1.017c-0.152-0.375-0.226-0.713-0.226-1.017
		c0-0.904-0.226-1.656-0.678-2.26c-0.452-0.6-0.904-1.204-1.356-1.808c-0.303-0.452-0.678-0.452-1.13,0
		c0.148,0.303,0.226,0.604,0.226,0.904c0,0.304,0.074,0.604,0.226,0.904c0.3,0.904,0.452,1.66,0.452,2.26
		c0.148,1.208,0.452,2.373,0.904,3.503S40.23,117.22,40.682,118.424z M51.304,59.89v0.226V59.89v-0.226
		c0.148-0.148,0.226-0.526,0.226-1.13c0.6-1.504,1.278-2.408,2.034-2.712v-0.226h0.226c-0.152,0-0.226,0.078-0.226,0.226
		c-0.303,1.056-0.755,1.886-1.356,2.486c0,0.152-0.226,0.226-0.678,0.226c0,0.304,0.035,0.53,0.113,0.678
		c0.074,0.152-0.039,0.304-0.339,0.452V59.89z M53.564,94.807c0,0.078-0.078,0.265-0.226,0.565c0.3,0.304,0.6,0.755,0.904,1.356
		c1.204-0.904,1.808-1.504,1.808-1.808c0-0.3-0.604-0.826-1.808-1.582l-0.452,0.904C53.638,94.545,53.564,94.733,53.564,94.807z
		 M56.05,102.604c0-1.052-0.452-1.43-1.356-1.13c-0.152,0-0.226,0.078-0.226,0.226c0,0.152-0.078,0.226-0.226,0.226
		c0,0.304,0.113,0.604,0.339,0.904c0.226,0.303,0.487,0.377,0.791,0.226c0.148,0,0.261-0.074,0.339-0.226
		C55.785,102.682,55.898,102.604,56.05,102.604z M57.858,124.752c-0.304,1.056-0.152,1.96,0.452,2.712
		c0.3-0.6,0.452-1.017,0.452-1.243S58.458,125.507,57.858,124.752z M60.344,115.486c-1.808,0.756-2.112,1.66-0.904,2.712
		C59.892,117.446,60.192,116.542,60.344,115.486z"/>
</g>
</svg>
